# xmcd
#
# Track frame offsets:
#	150
#	20908
#	37814
#	59405
#	82497
#	107138
#	132729
#	152324
#	175979
#	196126
#	213946
#
# Disc length: 3125 seconds
#
# Revision: 0
# Processed by: cddbd v1.4PL0 Copyright (c) Steve Scherf et al.
# Submitted via: dBpowerAMP V4.0
#
DISCID=9a0c330b
DTITLE=Spm - Hustletown
DYEAR=1900
DGENRE=Rap
TTITLE0=Streets of Beats
TTITLE1=Runaway
TTITLE2=Riddla on da Roof
TTITLE3=Nightshift
TTITLE4=Ghetto Prisoner
TTITLE5=Block of Rock
TTITLE6=Mary Go Round
TTITLE7=Wizard of Oz
TTITLE8=Hustletown
TTITLE9=Cummin Up Cummin Down
TTITLE10=Children of the Ghetto
EXTD=
EXTT0=
EXTT1=
EXTT2=
EXTT3=
EXTT4=
EXTT5=
EXTT6=
EXTT7=
EXTT8=
EXTT9=
EXTT10=
PLAYORDER=
